MoBL_ARMS_shoulder_elvation_states	
version=1	
nRows=457	
nColumns=2	
inDegrees=yes	
	
# SIMM Motion File Header:	
name MoBL_ARMS_shoulder_elvation_states	
datacolumns 2	
datarows 457	
otherdata 1	
range 2.500362397 3.525321513	
endheader	
time	shoulder_elv
2.500362397	18.36956454
2.502937632	18.51933538
2.50495319	18.63557683
2.506968748	18.750959
2.508984306	18.86547181
2.511554902	19.01025592
2.513573847	19.12296583
2.515592792	19.23479404
2.517611736	19.34573065
2.520165299	19.48476538
2.522182065	19.59355361
2.524198832	19.70144365
2.526215598	19.80842582
2.528764925	19.9423587
2.530781254	20.04725158
2.532797583	20.15122926
2.534813912	20.25428227
2.537355869	20.38288195
2.539371004	20.48377478
2.541386139	20.58373709
2.543401274	20.68275959
2.545938526	20.80610226
2.54795241	20.9029324
2.549966294	20.99881767
2.551980178	21.09374901
2.554513801	21.21182565
2.556526185	21.30452558
2.558538569	21.39626747
2.560550952	21.48704248
2.563082359	21.59985742
2.565093137	21.68837112
2.567103915	21.77591462
2.569114694	21.86247926
2.57164481	21.97001197
2.573653935	22.05428996
2.57566306	22.13758649
2.577672185	22.21989309
2.58020163	22.32210911
2.582209134	22.40210884
2.584216637	22.48111666
2.586224141	22.5591243
2.588753176	22.65597565
2.590759151	22.73166006
2.592765127	22.80634283
2.594771103	22.88001589
2.597299699	22.97144658
2.599304288	23.04278307
2.601308877	23.11310887
2.603313466	23.18241608
2.605841372	23.26836668
2.607844747	23.33532606
2.609848121	23.40126627
2.611851496	23.46617963
2.614378318	23.54659191
2.616380661	23.60914746
2.618383005	23.67067597
2.620385348	23.7311699
2.62291064	23.80599058
2.62491213	23.86411738
2.626913619	23.92120982
2.628915108	23.97726052
2.631438453	24.04644405
2.633439247	24.10011866
2.635440042	24.15275214
2.637440836	24.2043373
2.639961903	24.26784702
2.641962139	24.31704741
2.643962374	24.36520051
2.64596261	24.41229928
2.648481182	24.47010715
2.650480973	24.51481289
2.652480764	24.55846576
2.654480554	24.60105886
2.656996528	24.6531445
2.658995969	24.6933369
2.66099541	24.73247145
2.662994851	24.7705414
2.665508228	24.81689075
2.667507398	24.85255306
2.669506568	24.88715314
2.671505738	24.92068443
2.674016607	24.96128845
2.676015574	24.99240599
2.67801454	25.02245755
2.680013507	25.05143673
2.68252203	25.08629034
2.68452085	25.1128506
2.686519671	25.13834177
2.688518492	25.16275759
2.69102489	25.19185876
2.693023615	25.21385149
2.69502234	25.23477264
2.697021065	25.25461609
2.699525609	25.27796517
2.701524283	25.29538238
2.703522956	25.31172615
2.70552163	25.32699052
2.708024635	25.34458966
2.710023294	25.35742569
2.712021954	25.36918705
2.714020613	25.37986794
2.716522432	25.39172064
2.718521109	25.39997216
2.720519786	25.40714843
2.722518463	25.4132438
2.725019487	25.41935451
2.727018205	25.42302058
2.729016923	25.42561146
2.731015641	25.42712167
2.733516303	25.42749542
2.735515078	25.42657751
2.737513853	25.42458512
2.739512628	25.42151291
2.742013403	25.41615473
2.744012229	25.41065669
2.746011055	25.4040855
2.748009881	25.39643597
2.750511339	25.38535026
2.752510193	25.37527851
2.754509047	25.36413564
2.756507901	25.35191663
2.7590107	25.33510648
2.761009519	25.32047047
2.763008338	25.30476609
2.765007157	25.28798851
2.767512131	25.26545415
2.769510795	25.24626681
2.77150946	25.22601468
2.773508124	25.20469306
2.776016375	25.17642924
2.778014676	25.15270786
2.780012978	25.12792615
2.78201128	25.10207959
2.784524306	25.06807136
2.786521933	25.03983859
2.788519559	25.01055092
2.790517186	24.98020405
2.793036927	24.94042258
2.795033529	24.90770609
2.797030131	24.8739412
2.799026733	24.83912377
2.801555159	24.7935298
2.803550612	24.7563578
2.805546064	24.71814469
2.807541517	24.67888651
2.810079394	24.62745521
2.812074028	24.58584981
2.814068663	24.5432109
2.816063297	24.49953471
2.818609398	24.44228454
2.820603656	24.39626608
2.822597914	24.34922192
2.824592172	24.30114849
2.827145049	24.23811564
2.829139104	24.18771138
2.831133159	24.13628975
2.833127215	24.08384734
2.835686637	24.01504919
2.837680561	23.9602909
2.839674486	23.90452417
2.84166841	23.84774579
2.844234478	23.77319571
2.846228361	23.714117
2.848222244	23.6540394
2.850216127	23.59295986
2.852788847	23.51267758
2.854782783	23.44931428
2.856776718	23.38496223
2.858770653	23.31961856
2.861350004	23.23362884
2.86334411	23.16601829
2.865338215	23.09742973
2.86733232	23.02786049
2.869918121	22.93619824
2.871912584	22.86437757
2.873907048	22.79159016
2.875901511	22.71783353
2.878493126	22.62055626
2.880488329	22.54455721
2.882483533	22.46760307
2.884478736	22.38969154
2.887074324	22.28691317
2.889071247	22.20674461
2.89106817	22.12563243
2.893065093	22.04357454
2.895661407	21.93548323
2.89766091	21.8511566
2.899660413	21.76589785
2.901659916	21.67970506
2.904259484	21.56625987
2.906256429	21.47804898
2.908253374	21.38892301
2.910250319	21.29888025
2.91284936	21.18032728
2.914874456	21.08688651
2.916899551	20.99252069
2.918924647	20.89722804
2.92143607	20.77777527
2.923468143	20.68008788
2.925500216	20.58148592
2.927532289	20.48196771
2.93002103	20.35884868
2.932059656	20.25698254
2.934098283	20.15421369
2.936136909	20.05054067
2.938626684	19.92271093
2.940647787	19.81796183
2.94266889	19.71234377
2.944689993	19.60585575
2.947266185	19.46887301
2.94926983	19.36136719
2.951273475	19.25302646
2.95327712	19.14384999
2.955902643	18.9995363
2.957924412	18.88744189
2.95994618	18.77451752
2.961967949	18.66076281
2.964553211	18.5141071
2.966591834	18.39751549
2.968630458	18.28010189
2.970669081	18.161866
2.973228343	18.01228424
2.975248205	17.89332622
2.977268067	17.77358365
2.979287929	17.65305661
2.981948219	17.49313273
2.983953361	17.37170659
2.985958504	17.2495308
2.98836917	17.10165407
2.990476403	16.9715164
2.992583636	16.84056353
2.994690869	16.70880863
2.996798102	16.5762531
2.999346583	16.41488756
3.001298106	16.29054123
3.00324963	16.16553232
3.00569558	16.00791712
3.008141531	15.84927962
3.010036894	15.7256481
3.011932257	15.60141608
3.014436655	15.43634498
3.016941052	15.27024474
3.018901179	15.13952542
3.020861306	15.00819114
3.023319771	14.84259902
3.025778236	14.67605991
3.027684846	14.54625322
3.029591455	14.41589171
3.032081598	14.24479899
3.034571741	14.07278153
3.036585573	13.93299344
3.038599406	13.79261868
3.041074965	13.61925824
3.043202935	13.46954916
3.045330904	13.3192049
3.047458873	13.16824154
3.050017572	12.98590721
3.051934097	12.84876794
3.053850622	12.71114473
3.056507222	12.51959837
3.058829777	12.3514038
3.061152332	12.1825483
3.063180823	12.03453586
3.065209314	11.88604348
3.067237805	11.73707363
3.070102791	11.5258835
3.0722149	11.36960921
3.07432701	11.21285776
3.076439119	11.05563366
3.079127598	10.8548472
3.081206653	10.69907563
3.083285709	10.54288867
3.085364764	10.38629025
3.087978553	10.18885534
3.090275624	10.01483884
3.092572694	9.840373967
3.094869765	9.665466314
3.097166836	9.490143189
3.099463906	9.314407322
3.101456521	9.161653724
3.103449135	9.008613698
3.106061407	8.807574844
3.108673678	8.606090804
3.110496719	8.465235665
3.112319761	8.324182664
3.11528715	8.094197448
3.117800685	7.899028827
3.119994233	7.728462689
3.122187782	7.557678316
3.12438133	7.386699204
3.126574878	7.215535433
3.129365068	6.997583914
3.131435924	6.835664203
3.133506781	6.673633918
3.136025945	6.476389896
3.13854511	6.279030621
3.141064274	6.081569778
3.143133303	5.919345034
3.145202333	5.75708538
3.147770213	5.555688372
3.150338094	5.354294655
3.152905975	5.152941388
3.154983995	4.990040476
3.157062014	4.827204641
3.159140034	4.664442594
3.162378908	4.410949191
3.164928272	4.211628642
3.166684765	4.074423001
3.168441257	3.937322673
3.171461468	3.701873446
3.173515758	3.541954909
3.176162877	3.336199487
3.178809996	3.130829656
3.180958915	2.96441641
3.183671161	2.754811472
3.186025171	2.573307899
3.188379181	2.392217437
3.191577349	2.146905007
3.193745801	1.981089496
3.195914254	1.815698265
3.198082707	1.650755973
3.201289545	1.407712465
3.204035611	1.200476895
3.20576859	1.070138452
3.20750157	0.940152009
3.210438919	0.720676313
3.213045438	0.526858297
3.215327171	0.357947746
3.217608905	0.18976555
3.220137858	0.004249288
3.222666811	-0.180285812
3.225195765	-0.363810228
3.227724718	-0.546284578
3.230253672	-0.727669859
3.232782625	-0.907919594
3.235311579	-1.087000378
3.237840532	-1.264865549
3.240369485	-1.441483837
3.242626575	-1.598031815
3.244883665	-1.753517508
3.247140756	-1.90792016
3.24939509	-2.06102114
3.251649424	-2.212977021
3.253903758	-2.36376443
3.256158093	-2.51335428
3.258412427	-2.661710508
3.260666761	-2.808810725
3.262921095	-2.954625817
3.26517543	-3.099119235
3.267429764	-3.242268872
3.269684098	-3.384045582
3.271938432	-3.524412687
3.274192767	-3.663348112
3.276447101	-3.800822998
3.278701435	-3.936800582
3.280955769	-4.071259087
3.283210104	-4.204169717
3.285464438	-4.335495942
3.287718772	-4.46521625
3.289973106	-4.59330233
3.29198781	-4.706361231
3.294002513	-4.818072115
3.296804382	-4.971144438
3.298844853	-5.080922556
3.300885325	-5.189243393
3.302925796	-5.296090568
3.305301597	-5.418607556
3.307677398	-5.539066806
3.309702414	-5.640086604
3.311727429	-5.739570155
3.314916966	-5.893096228
3.318106502	-6.042676098
3.320267015	-6.141719337
3.322427529	-6.238903755
3.325209951	-6.361280942
3.327341452	-6.452880733
3.329472953	-6.54260112
3.332263199	-6.657169399
3.334445678	-6.744477119
3.336628157	-6.82974516
3.339516095	-6.939397921
3.341874221	-7.026218677
3.344232346	-7.11057904
3.346899767	-7.203001422
3.348932597	-7.271279164
3.350965427	-7.337671516
3.352998257	-7.402168506
3.355374146	-7.475123991
3.357750035	-7.545450095
3.359713824	-7.601572444
3.361677613	-7.655874036
3.365199552	-7.748658381
3.366915066	-7.791693382
3.369216801	-7.847201157
3.371518536	-7.900140628
3.373820271	-7.950486432
3.376122006	-7.998226754
3.378423741	-8.043356603
3.380907801	-8.089110379
3.383067458	-8.126392423
3.385227115	-8.161336728
3.387386772	-8.193939239
3.390071366	-8.231189338
3.39210834	-8.257017225
3.394145315	-8.280743507
3.397229708	-8.312649722
3.399423919	-8.332391098
3.401618129	-8.349674371
3.404381763	-8.367934621
3.406499117	-8.379270659
3.408616471	-8.38830865
3.411221031	-8.396267392
3.413365171	-8.400198554
3.415509311	-8.401768612
3.418187159	-8.400410947
3.42030256	-8.396728911
3.42241796	-8.390752002
3.425141275	-8.379678538
3.427244305	-8.368523361
3.429347335	-8.355109749
3.432278413	-8.332649181
3.434436685	-8.313309793
3.436594956	-8.29160833
3.439653039	-8.256822295
3.441986868	-8.227093615
3.444320697	-8.194633837
3.446711321	-8.158555553
3.449101944	-8.119631885
3.451390854	-8.07970553
3.453679764	-8.037195301
3.456281473	-7.985750073
3.458883182	-7.931005346
3.461484892	-7.87297302
3.464086601	-7.811675399
3.46668831	-7.747147988
3.468776226	-7.693044782
3.470864142	-7.636886608
3.472952058	-7.578690326
3.475640371	-7.500775435
3.478328685	-7.419536465
3.48062421	-7.347556407
3.482919736	-7.273198027
3.485953193	-7.171322704
3.48898665	-7.06537077
3.491691797	-6.967503154
3.494396943	-6.866470216
3.49710209	-6.76232771
3.502471707	-6.546544384
3.506289673	-6.385934103
3.508327251	-6.297820299
3.510777184	-6.189702773
3.513227116	-6.079238838
3.515677049	-5.966466746
3.519086089	-5.805762741
3.521864549	-5.671591547
3.523593031	-5.586696821
3.525321513	-5.500729647
